<svg xmlns="http://www.w3.org/2000/svg" width="1459" height="300" viewBox="0 0 1459 300" fill="none">
<path d="M497.188 49.7324H510.15V87.338H526.356L541.267 27.6884V3.7028H497.188V49.7324ZM300.129 100.953C309.851 100.953 314.387 108.734 314.387 169.682H282.626C283.922 108.734 289.107 100.953 300.129 100.953ZM359.116 223.495H338.372V230.628C338.372 260.452 329.943 274.716 312.44 274.716C292.347 274.716 282.624 261.746 282.624 193.668V188.484H361.705C361.705 108.734 344.203 77.6132 300.126 77.6132C256.047 77.6132 227.523 122.997 227.523 193.024C227.523 262.396 254.749 300 301.422 300C341.612 300 359.114 277.308 359.114 229.332V223.495H359.116ZM909.614 100.953C919.337 100.953 923.875 108.734 923.875 169.682H893.9C895.195 108.734 898.593 100.953 909.614 100.953ZM968.602 223.495H947.858V230.628C947.858 260.452 939.431 274.716 921.928 274.716C901.832 274.716 893.897 261.746 893.897 193.668V188.484H971.193C971.193 108.734 953.691 77.6132 909.612 77.6132C865.532 77.6132 837.011 122.997 837.011 193.022C837.011 262.396 864.239 300 910.91 300C951.1 300 968.602 277.308 968.602 229.332V223.495ZM1255.12 300C1284.29 300 1296.6 281.846 1296.6 255.909V223.495H1277.16V255.909C1277.16 269.529 1275.21 274.063 1268.73 274.063C1262.89 274.063 1260.95 270.172 1260.95 257.853V102.249H1296.6V82.1516H1261.6V21.854H1241.5L1211.68 84.7436H1194.18V101.601H1209.74V245.534C1209.74 283.142 1216.22 300 1255.12 300ZM1104.73 135.316C1104.73 95.1188 1086.58 78.2636 1047.69 78.2636C1008.79 78.2636 982.214 106.142 982.214 139.209V152.176H1026.94V121.701C1026.94 104.196 1030.83 97.7132 1040.56 97.7132C1050.28 97.7132 1054.17 103.548 1054.17 121.701V157.363C995.181 177.458 977.031 192.374 977.031 242.296C977.031 281.198 992.587 300 1019.17 300C1041.85 300 1052.23 284.438 1058.06 274.716V296.109H1115.75V278.601H1104.73V135.316H1104.73ZM1442.45 278.601V124.941C1442.45 93.1724 1428.19 78.2612 1402.91 78.2612C1372.44 78.2612 1360.13 100.953 1360.13 100.953V1.1084L1295.95 8.2412V25.0964H1310.86V278.601H1300.49V296.109H1371.8V278.601H1361.43V144.393C1361.43 121.053 1367.91 111.328 1379.57 111.328C1388 111.328 1391.24 116.515 1391.24 129.482V278.601H1379.57V296.109H1456.71V278.601H1442.45ZM1054.17 175.514V241.646C1054.17 261.098 1050.28 268.881 1039.26 268.881C1030.83 268.881 1026.94 261.746 1026.94 238.408C1026.94 198.856 1030.18 189.132 1054.17 175.514ZM827.133 278.601V21.2084H842.043V4.3484H753.234V21.206H771.384V141.799H714.343V21.2084H733.141V4.3484H643.036V21.206H658.594V278.599H643.036V296.107H733.141V278.599H714.343V161.901H771.384V278.601H753.234V296.109H842.043V278.601H827.133ZM1183.81 278.601V1.1084L1117.04 8.2412V25.0964H1133.25V278.601H1122.88V296.109H1199.37V278.601H1183.81ZM639.796 238.406C639.796 169.682 565.901 165.141 565.901 119.755C565.901 104.196 573.677 96.4148 585.994 96.4148C604.792 96.4148 614.517 115.216 615.813 154.764H632.665V89.93C632.665 89.93 613.867 78.2612 585.344 78.2612C550.99 78.2612 523.115 97.7108 523.115 137.26C523.115 202.096 595.067 211.176 595.067 255.261C595.067 272.769 586.64 281.198 573.025 281.198C552.281 281.198 541.91 263.044 540.614 218.306H523.762V288.331C523.762 288.331 544.506 300 574.971 300C612.571 300 639.796 278.601 639.796 238.406ZM217.803 278.601V21.2084H231.416V4.3484H155.574L117.978 168.384L77.788 4.3484H0V21.206H16.2064V278.599H0V296.107H59.6355V278.599H40.8376V97.7108L88.1588 296.107H115.384L162.055 96.4148V278.599H144.553V296.107H231.416V278.599H217.803V278.601ZM504.964 278.601V124.941C504.964 93.1724 490.706 78.2612 466.073 78.2612C435.606 78.2612 423.289 100.953 423.289 100.953V78.2612L358.466 85.394V102.9H373.377V278.601H357.82V296.109H434.956V278.601H424.585V144.393C424.585 121.053 431.069 111.328 442.735 111.328C451.162 111.328 454.402 116.515 454.402 129.482V278.601H442.735V296.109H515.335V278.601H504.964Z" fill="black"/>
</svg>
